<?xml version="1.0" encoding="UTF-8" standalone="no"?>
<!-- Generator: Adobe Illustrator 16.0.0, SVG Export Plug-In . SVG Version: 6.00 Build 0)  -->

<svg
   xmlns:dc="http://purl.org/dc/elements/1.1/"
   xmlns:cc="http://creativecommons.org/ns#"
   xmlns:rdf="http://www.w3.org/1999/02/22-rdf-syntax-ns#"
   xmlns:svg="http://www.w3.org/2000/svg"
   xmlns="http://www.w3.org/2000/svg"
   xmlns:sodipodi="http://sodipodi.sourceforge.net/DTD/sodipodi-0.dtd"
   xmlns:inkscape="http://www.inkscape.org/namespaces/inkscape"
   version="1.1"
   id="Capa_1"
   x="0px"
   y="0px"
   width="444.81799"
   height="280.36801"
   viewBox="0 0 444.81799 280.36801"
   xml:space="preserve"
   sodipodi:docname="high-prio.svg"
   inkscape:version="0.92.3 (2405546, 2018-03-11)"><metadata
   id="metadata41"><rdf:RDF><cc:Work
       rdf:about=""><dc:format>image/svg+xml</dc:format><dc:type
         rdf:resource="http://purl.org/dc/dcmitype/StillImage" /><dc:title /></cc:Work></rdf:RDF></metadata><defs
   id="defs39" /><sodipodi:namedview
   pagecolor="#ffffff"
   bordercolor="#666666"
   borderopacity="1"
   objecttolerance="10"
   gridtolerance="10"
   guidetolerance="10"
   inkscape:pageopacity="0"
   inkscape:pageshadow="2"
   inkscape:window-width="1920"
   inkscape:window-height="1017"
   id="namedview37"
   showgrid="false"
   fit-margin-top="0"
   fit-margin-left="0"
   fit-margin-right="0"
   fit-margin-bottom="0"
   inkscape:zoom="0.53055288"
   inkscape:cx="-356.23216"
   inkscape:cy="140.18449"
   inkscape:window-x="1358"
   inkscape:window-y="-8"
   inkscape:window-maximized="1"
   inkscape:current-layer="g4" />
<g
   id="g4"
   transform="translate(0,-82.226)">
	<path
   d="m 10.566,330.617 21.409,21.416 c 7.419,7.04 16.084,10.561 25.975,10.561 10.095,0 18.657,-3.521 25.7,-10.561 L 222.408,213.271 361.165,352.029 c 7.042,7.04 15.606,10.561 25.697,10.561 9.896,0 18.559,-3.521 25.979,-10.561 l 21.128,-21.416 c 7.234,-7.229 10.849,-15.892 10.849,-25.981 0,-10.277 -3.619,-18.842 -10.848,-25.693 L 248.106,93.074 c -6.855,-7.23 -15.416,-10.848 -25.697,-10.848 -10.088,0 -18.75,3.617 -25.977,10.848 L 10.567,278.939 C 3.5240002,285.983 2.1276605e-7,294.547 2.1276605e-7,304.632 -9.9978723e-4,314.533 3.5230002,323.191 10.566,330.617 Z"
   id="path2"
   inkscape:connector-curvature="0"
   style="fill:#fe5c38;fill-opacity:1" />
</g>
<g
   id="g6"
   transform="translate(0,-82.226)">
</g>
<g
   id="g8"
   transform="translate(0,-82.226)">
</g>
<g
   id="g10"
   transform="translate(0,-82.226)">
</g>
<g
   id="g12"
   transform="translate(0,-82.226)">
</g>
<g
   id="g14"
   transform="translate(0,-82.226)">
</g>
<g
   id="g16"
   transform="translate(0,-82.226)">
</g>
<g
   id="g18"
   transform="translate(0,-82.226)">
</g>
<g
   id="g20"
   transform="translate(0,-82.226)">
</g>
<g
   id="g22"
   transform="translate(0,-82.226)">
</g>
<g
   id="g24"
   transform="translate(0,-82.226)">
</g>
<g
   id="g26"
   transform="translate(0,-82.226)">
</g>
<g
   id="g28"
   transform="translate(0,-82.226)">
</g>
<g
   id="g30"
   transform="translate(0,-82.226)">
</g>
<g
   id="g32"
   transform="translate(0,-82.226)">
</g>
<g
   id="g34"
   transform="translate(0,-82.226)">
</g>
</svg>